<?xml version="1.0" encoding="UTF-8"?>
<!DOCTYPE svg PUBLIC "-//W3C//DTD SVG 1.1//EN" "http://www.w3.org/Graphics/SVG/1.1/DTD/svg11.dtd">
<svg xmlns="http://www.w3.org/2000/svg" version="1.1" width="1024px" height="1024px" style="shape-rendering:geometricPrecision; text-rendering:geometricPrecision; image-rendering:optimizeQuality; fill-rule:evenodd; clip-rule:evenodd" xmlns:xlink="http://www.w3.org/1999/xlink">
<g><path style="opacity:1" fill="#fefefe" d="M -0.5,-0.5 C 340.833,-0.5 682.167,-0.5 1023.5,-0.5C 1023.5,340.833 1023.5,682.167 1023.5,1023.5C 682.167,1023.5 340.833,1023.5 -0.5,1023.5C -0.5,682.167 -0.5,340.833 -0.5,-0.5 Z"/></g>
<g><path style="opacity:1" fill="#070605" d="M 490.5,3.5 C 669.609,0.649276 813.442,69.6493 922,210.5C 1010.14,335.924 1038.14,473.924 1006,624.5C 1003.32,634.877 1000.49,645.211 997.5,655.5C 1011.86,681.462 1010.36,706.462 993,730.5C 981.757,742.622 968.091,750.622 952,754.5C 896.859,852.975 818.025,925.808 715.5,973C 577.037,1031.98 439.037,1030.98 301.5,970C 201.827,922.494 124.827,850.661 70.5,754.5C 27.4178,741.25 10.5845,712.584 20,668.5C 21.6394,663.888 23.8061,659.554 26.5,655.5C 13.6187,616.547 6.45201,576.547 5,535.5C -0.291461,375.945 54.8752,241.778 170.5,133C 261.986,53.206 368.653,10.0394 490.5,3.5 Z"/></g>
<g><path style="opacity:1" fill="#dacfb8" d="M 481.5,15.5 C 648.466,9.60428 786.3,69.2709 895,194.5C 980.609,301.699 1017.28,424.032 1005,561.5C 1000.74,549.961 994.239,539.961 985.5,531.5C 995.924,512.809 992.924,496.642 976.5,483C 966.062,475.636 954.395,471.802 941.5,471.5C 943.888,468.805 944.888,465.638 944.5,462C 943.544,453.43 942.21,444.93 940.5,436.5C 944.803,437.204 948.303,435.87 951,432.5C 952.035,426.326 953.702,420.326 956,414.5C 962.408,408.762 968.075,402.429 973,395.5C 976.248,389.548 977.248,383.215 976,376.5C 973.755,371.003 970.755,366.003 967,361.5C 954.102,349.271 941.936,336.438 930.5,323C 923.696,320.169 916.696,317.836 909.5,316C 897.764,306.864 884.431,301.864 869.5,301C 853.5,300.333 837.5,300.333 821.5,301C 808.787,303.125 797.12,307.792 786.5,315C 777.252,314.86 769.085,317.693 762,323.5C 754.426,335.279 745.426,345.946 735,355.5C 718.169,342.333 699.836,339.666 680,347.5C 660.426,341.707 642.092,344.374 625,355.5C 611.334,342.461 599.334,328.128 589,312.5C 582.005,304.499 573.171,300.999 562.5,302C 549.494,293.493 535.161,288.827 519.5,288C 494.708,285.019 471.375,289.352 449.5,301C 436.38,299.48 425.547,303.647 417,313.5C 412.245,320.676 407.245,327.676 402,334.5C 394.135,342.03 386.635,349.864 379.5,358C 369.433,354.902 359.1,352.569 348.5,351C 335.889,349.538 323.556,350.705 311.5,354.5C 299.612,351.343 289.779,354.677 282,364.5C 284.365,355.012 286.365,345.345 288,335.5C 292.756,300.298 279.922,291.798 249.5,310C 237.109,317.725 225.275,326.225 214,335.5C 193.81,325.812 172.977,324.146 151.5,330.5C 140.305,316.805 127.638,304.638 113.5,294C 106.08,288.304 97.7471,285.637 88.5,286C 85.804,286.69 83.6374,288.19 82,290.5C 79.5339,295.232 77.8673,300.232 77,305.5C 75.0842,328.819 76.9175,351.819 82.5,374.5C 77.1158,386.151 72.6158,398.151 69,410.5C 66.1457,426.597 69.479,441.264 79,454.5C 83.4562,460.625 88.2895,466.458 93.5,472C 71.99,468.393 53.49,474.226 38,489.5C 28.2,503.324 28.0334,517.324 37.5,531.5C 28.6034,540.624 22.2701,551.29 18.5,563.5C 4.122,398.753 56.122,259.253 174.5,145C 261.96,67.2889 364.293,24.1223 481.5,15.5 Z"/></g>
<g><path style="opacity:1" fill="#d78833" d="M 267.5,434.5 C 250.21,422.692 232.21,421.525 213.5,431C 209.5,431.667 205.5,431.667 201.5,431C 188.776,422.321 174.776,419.321 159.5,422C 153.813,424.179 148.146,426.346 142.5,428.5C 139.298,427.901 136.298,426.734 133.5,425C 123.726,414.631 111.726,410.631 97.5,413C 90.0929,414.966 83.0929,417.799 76.5,421.5C 76.9115,414.277 78.4115,407.277 81,400.5C 84.1896,391.958 88.0229,383.791 92.5,376C 84.6412,350.894 82.8079,325.394 87,299.5C 88.2501,296.241 90.5834,294.575 94,294.5C 98.0829,295.289 101.916,296.789 105.5,299C 121.333,309.5 134.5,322.667 145,338.5C 146.194,339.43 147.527,340.097 149,340.5C 171.35,333.053 193.183,334.386 214.5,344.5C 216.61,343.946 218.61,343.112 220.5,342C 235.66,328.247 252.66,317.247 271.5,309C 273.235,308.349 274.902,308.515 276.5,309.5C 277.919,311.336 279.086,313.336 280,315.5C 280.775,323.548 280.442,331.548 279,339.5C 276.007,352.813 272.007,365.813 267,378.5C 265.039,381.463 262.706,384.129 260,386.5C 259.833,387.333 259.667,388.167 259.5,389C 264.537,400.482 267.537,412.482 268.5,425C 268.344,428.2 268.011,431.367 267.5,434.5 Z"/></g>
<g><path style="opacity:1" fill="#faf2e5" d="M 97.5,316.5 C 103.646,316.048 108.979,317.882 113.5,322C 117.967,325.465 122.133,329.298 126,333.5C 129.254,336.874 130.088,340.707 128.5,345C 119.827,348.999 111.827,353.999 104.5,360C 102.527,360.495 100.527,360.662 98.5,360.5C 96.2761,345.888 95.9427,331.221 97.5,316.5 Z"/></g>
<g><path style="opacity:1" fill="#faf3e6" d="M 262.5,328.5 C 265.397,328.125 268.063,328.625 270.5,330C 269.497,343.517 266.664,356.683 262,369.5C 260.529,373.546 258.029,374.379 254.5,372C 247.369,364.192 239.702,357.192 231.5,351C 233.055,347.439 235.388,344.439 238.5,342C 246.432,337.205 254.432,332.705 262.5,328.5 Z"/></g>
<g><path style="opacity:1" fill="#fcfcfc" d="M 693.5,351.5 C 719.455,351.218 737.621,362.884 748,386.5C 762.475,399.309 772.475,414.976 778,433.5C 780.279,442.304 779.945,450.97 777,459.5C 772.361,464.743 768.195,464.576 764.5,459C 761.433,457.836 759.767,458.836 759.5,462C 761.038,465.722 761.538,469.555 761,473.5C 758.507,475.672 755.674,476.506 752.5,476C 762.584,450.721 759.751,426.888 744,404.5C 741.617,401.727 738.783,399.561 735.5,398C 731.023,397.835 729.523,400.002 731,404.5C 742.261,413.346 748.594,425.013 750,439.5C 752.564,453.682 749.898,466.682 742,478.5C 740.817,461.046 733.317,447.213 719.5,437C 716.333,434.876 713,434.376 709.5,435.5C 708.369,437.074 708.202,438.741 709,440.5C 722.525,446.38 730.525,456.713 733,471.5C 733.851,477.253 733.517,482.92 732,488.5C 729.859,491.321 727.025,492.654 723.5,492.5C 723.053,484.991 720.72,478.158 716.5,472C 713.433,470.836 711.767,471.836 711.5,475C 713.397,480.857 715.397,486.691 717.5,492.5C 713.013,492.74 708.68,491.574 704.5,489C 691.936,480.77 683.603,469.437 679.5,455C 682.472,452.073 685.639,449.24 689,446.5C 691.661,441.723 690.828,437.89 686.5,435C 679.153,433.043 671.819,433.043 664.5,435C 659.769,438.133 659.269,441.966 663,446.5C 665.735,449.406 668.568,452.072 671.5,454.5C 667.885,470.584 659.218,483.084 645.5,492C 642.937,493.079 640.271,493.579 637.5,493.5C 638.9,487.365 641.4,481.699 645,476.5C 645.185,472.028 643.185,470.695 639,472.5C 635.009,478.813 631.843,485.48 629.5,492.5C 627.517,491.018 625.684,489.351 624,487.5C 622.493,471.69 627.326,458.19 638.5,447C 641.417,445.472 644.417,444.139 647.5,443C 649.35,439.253 648.183,437.086 644,436.5C 633.202,439.961 625.535,446.961 621,457.5C 618.52,464.092 616.354,470.759 614.5,477.5C 612.473,476.307 610.973,474.64 610,472.5C 603.967,450.782 606.967,430.448 619,411.5C 621.667,409.5 624.333,407.5 627,405.5C 628.5,400.333 626.667,398.5 621.5,400C 612.057,406.026 605.89,414.526 603,425.5C 598.568,441.335 598.401,457.168 602.5,473C 598.494,473.442 594.994,472.276 592,469.5C 591.931,464.575 591.764,459.741 591.5,455C 589.299,454.175 587.466,454.675 586,456.5C 585.023,458.74 584.523,461.073 584.5,463.5C 577.344,463.05 574.344,459.217 575.5,452C 576.039,441.342 578.539,431.176 583,421.5C 589.891,417.969 596.391,413.803 602.5,409C 610,401.5 617.5,394 625,386.5C 627.146,383.874 628.479,380.874 629,377.5C 629.291,372.712 629.458,368.045 629.5,363.5C 645.448,352.143 662.614,349.81 681,356.5C 685.3,354.925 689.466,353.259 693.5,351.5 Z"/></g>
<g><path style="opacity:1" fill="#5c493e" d="M 890.5,507.5 C 888.535,501.267 886.535,494.934 884.5,488.5C 886.557,484.933 889.223,481.766 892.5,479C 897.992,477.132 903.326,474.965 908.5,472.5C 910.281,468.374 910.948,464.041 910.5,459.5C 921.197,458.824 925.03,453.157 922,442.5C 915.28,430.128 904.78,424.295 890.5,425C 885.361,423.455 880.361,421.621 875.5,419.5C 865.958,413.466 856.791,406.8 848,399.5C 845.987,394.388 844.987,389.055 845,383.5C 844.417,381.998 843.584,380.665 842.5,379.5C 837.946,387.598 833.112,395.598 828,403.5C 824.922,407.085 821.422,410.085 817.5,412.5C 806.381,417.226 795.381,422.226 784.5,427.5C 782.32,420.458 779.654,413.625 776.5,407C 777.58,397.516 777.58,388.016 776.5,378.5C 776.973,366.275 779.806,354.608 785,343.5C 786.073,339.905 784.739,337.905 781,337.5C 779.289,337.439 777.956,338.106 777,339.5C 768.431,357.334 765.431,376 768,395.5C 757.769,385.439 749.269,374.106 742.5,361.5C 745.791,358.711 748.958,355.711 752,352.5C 758.531,343.976 765.031,335.476 771.5,327C 777.13,325.815 782.797,324.815 788.5,324C 794.644,320.427 800.977,317.093 807.5,314C 813.034,312.133 818.701,310.799 824.5,310C 838.833,309.333 853.167,309.333 867.5,310C 882.348,311.096 895.681,316.096 907.5,325C 913.997,326.54 920.33,328.54 926.5,331C 932.375,337.207 937.875,343.707 943,350.5C 949.333,356.833 955.667,363.167 962,369.5C 968.806,377.262 969.139,385.262 963,393.5C 956.924,398.905 951.591,404.905 947,411.5C 945.641,416.464 944.474,421.464 943.5,426.5C 930.047,426.232 922.213,419.232 920,405.5C 919.871,395.151 920.371,384.818 921.5,374.5C 921.397,366.013 920.231,357.679 918,349.5C 917.152,346.302 915.652,343.469 913.5,341C 910.692,340.08 908.525,340.913 907,343.5C 909.045,350.997 910.711,358.663 912,366.5C 912.324,376.5 912.157,386.5 911.5,396.5C 910.043,408.017 913.21,418.017 921,426.5C 924.52,429.358 928.02,432.191 931.5,435C 934.234,443.994 935.401,453.161 935,462.5C 931.576,460.733 929.41,461.733 928.5,465.5C 929.389,468.389 930.722,471.055 932.5,473.5C 910.194,478.134 898.861,491.801 898.5,514.5C 896.139,514.674 893.806,515.007 891.5,515.5C 891.84,512.028 891.507,509.361 890.5,507.5 Z"/></g>
<g><path style="opacity:1" fill="#dc8f32" d="M 811.5,354.5 C 822.824,353.326 827.991,358.326 827,369.5C 823.454,377.592 818.454,378.592 812,372.5C 809.087,367.518 808.087,362.185 809,356.5C 809.995,355.934 810.828,355.267 811.5,354.5 Z"/></g>
<g><path style="opacity:1" fill="#f8f1e6" d="M 839.5,328.5 C 842.044,328.104 844.211,328.771 846,330.5C 848.435,343.098 847.435,355.431 843,367.5C 841.333,370.167 839.667,370.167 838,367.5C 835.625,357.628 834.958,347.628 836,337.5C 836.622,334.261 837.788,331.261 839.5,328.5 Z"/></g>
<g><path style="opacity:1" fill="#db8d32" d="M 867.5,357.5 C 875.868,356.061 879.368,359.395 878,367.5C 876.011,373.851 871.844,376.351 865.5,375C 862.64,371.319 861.807,367.152 863,362.5C 864.025,360.313 865.525,358.646 867.5,357.5 Z"/></g>
<g><path style="opacity:1" fill="#ac632d" d="M 332.5,358.5 C 329.136,363.806 327.469,369.64 327.5,376C 329.733,385.864 331.066,395.864 331.5,406C 331.801,418.097 328.301,428.93 321,438.5C 316.7,443.801 312.034,448.801 307,453.5C 303.809,458.564 300.642,463.564 297.5,468.5C 293.558,460.862 289.891,453.029 286.5,445C 288.217,440.3 289.383,435.467 290,430.5C 290.765,417.76 292.098,405.093 294,392.5C 296.253,384.152 300.42,376.985 306.5,371C 305.025,366.621 302.359,365.621 298.5,368C 293.459,372.582 289.792,378.082 287.5,384.5C 287.893,380.328 289.56,376.328 292.5,372.5C 291.423,371.295 290.09,370.628 288.5,370.5C 292.911,364.126 298.911,361.293 306.5,362C 310.996,365.189 315.329,364.856 319.5,361C 323.754,359.686 328.087,358.853 332.5,358.5 Z"/></g>
<g><path style="opacity:1" fill="#b2672e" d="M 349.5,359.5 C 358.048,361.054 366.381,363.387 374.5,366.5C 373.124,372.291 373.624,377.958 376,383.5C 378.916,388.42 382.582,392.753 387,396.5C 386.783,415.207 386.949,433.874 387.5,452.5C 382.78,458.211 378.114,463.877 373.5,469.5C 372.97,467.076 372.136,464.743 371,462.5C 364.093,454.349 357.426,446.016 351,437.5C 344.895,426.933 342.895,415.6 345,403.5C 348.758,393.063 351.591,382.396 353.5,371.5C 353.286,367.084 351.953,363.084 349.5,359.5 Z"/></g>
<g><path style="opacity:1" fill="#e6c791" d="M 492.5,296.5 C 504.861,296.321 517.194,296.821 529.5,298C 540.09,299.861 549.757,303.861 558.5,310C 569.256,308.131 577.756,311.631 584,320.5C 586,323.833 588,327.167 590,330.5C 601.279,341.754 611.613,353.754 621,366.5C 622.324,372.343 621.324,377.676 618,382.5C 607.709,393.873 596.209,403.707 583.5,412C 582.5,412.667 581.5,412.667 580.5,412C 578.765,409.808 577.598,407.308 577,404.5C 577.174,391.171 577.174,377.838 577,364.5C 576.328,352.808 573.995,341.475 570,330.5C 566.456,327.68 563.956,328.514 562.5,333C 568.142,352.11 569.975,371.61 568,391.5C 567.383,415.298 562.05,437.965 552,459.5C 544.899,472.808 533.732,479.641 518.5,480C 503.849,481.634 489.516,480.3 475.5,476C 463.881,470.381 455.715,461.547 451,449.5C 443.811,431.891 439.811,413.557 439,394.5C 436.765,373.342 438.932,352.675 445.5,332.5C 443.993,328.165 441.493,327.498 438,330.5C 432.368,344.96 429.534,359.96 429.5,375.5C 430.233,386.498 430.4,397.498 430,408.5C 429.484,411.034 428.317,413.2 426.5,415C 410.504,408.038 397.004,397.538 386,383.5C 383.799,379.934 382.299,376.1 381.5,372C 382.13,368.704 383.63,365.87 386,363.5C 402.038,348.473 416.205,331.973 428.5,314C 436.004,309.638 444.004,308.305 452.5,310C 464.798,302.101 478.131,297.601 492.5,296.5 Z"/></g>
<g><path style="opacity:1" fill="#040302" d="M 539.5,360.5 C 542.505,360.253 545.005,361.253 547,363.5C 551.225,369.631 551.558,375.965 548,382.5C 543.667,387.833 539.333,387.833 535,382.5C 530.502,373.701 532.002,366.368 539.5,360.5 Z"/></g>
<g><path style="opacity:1" fill="#040302" d="M 466.5,359.5 C 473.333,360.449 477,364.449 477.5,371.5C 477.259,376.812 475.259,381.312 471.5,385C 463.206,385.876 459.206,382.042 459.5,373.5C 459.207,367.42 461.54,362.753 466.5,359.5 Z"/></g>
<g><path style="opacity:1" fill="#faf3e7" d="M 141.5,376.5 C 145.712,376.078 149.712,376.744 153.5,378.5C 157.13,384.721 155.297,388.054 148,388.5C 139.828,387.533 137.661,383.533 141.5,376.5 Z"/></g>
<g><path style="opacity:1" fill="#050404" d="M 805.5,380.5 C 818.942,380.107 824.109,386.441 821,399.5C 816.699,407.377 810.533,409.21 802.5,405C 795.36,395.861 796.36,387.695 805.5,380.5 Z"/></g>
<g><path style="opacity:1" fill="#050403" d="M 874.5,380.5 C 882.419,379.703 887.586,383.036 890,390.5C 892.257,403.907 886.757,409.74 873.5,408C 864.589,402.113 863.089,394.613 869,385.5C 870.73,383.598 872.563,381.931 874.5,380.5 Z"/></g>
<g><path style="opacity:1" fill="#faf3e7" d="M 204.5,381.5 C 209.039,380.957 212.873,382.29 216,385.5C 216.638,391.206 213.971,394.206 208,394.5C 197.147,392.153 195.981,387.819 204.5,381.5 Z"/></g>
<g><path style="opacity:1" fill="#f7f6f5" d="M 807.5,383.5 C 814.803,383.602 816.803,386.769 813.5,393C 806.51,395.005 803.676,392.505 805,385.5C 805.995,384.934 806.828,384.267 807.5,383.5 Z"/></g>
<g><path style="opacity:1" fill="#92552b" d="M 288.5,370.5 C 290.09,370.628 291.423,371.295 292.5,372.5C 289.56,376.328 287.893,380.328 287.5,384.5C 285.89,389.713 284.724,395.047 284,400.5C 283.65,413.691 281.983,426.691 279,439.5C 277.416,443.675 275.082,447.341 272,450.5C 278.525,430.651 277.692,410.985 269.5,391.5C 273.525,386.642 277.358,381.642 281,376.5C 283.106,373.882 285.606,371.882 288.5,370.5 Z"/></g>
<g><path style="opacity:1" fill="#fbf8f3" d="M 874.5,385.5 C 879.406,384.306 882.406,386.139 883.5,391C 881.545,395.358 878.379,396.525 874,394.5C 871.88,391.303 872.047,388.303 874.5,385.5 Z"/></g>
<g><path style="opacity:1" fill="#060301" d="M 135.5,397.5 C 141.647,397.495 145.481,400.495 147,406.5C 149.5,416.657 145.666,421.157 135.5,420C 127.516,412.376 127.516,404.876 135.5,397.5 Z"/></g>
<g><path style="opacity:1" fill="#f9f2e7" d="M 875.5,419.5 C 872.947,426.48 871.447,433.814 871,441.5C 869.042,446.548 867.209,451.548 865.5,456.5C 857.379,459.364 849.546,458.698 842,454.5C 841.333,450.833 841.333,447.167 842,443.5C 849.762,439.413 854.929,433.246 857.5,425C 856.288,421.028 853.621,418.361 849.5,417C 838.868,413.27 828.535,413.937 818.5,419C 813.805,423.349 813.305,428.182 817,433.5C 821.569,438.57 827.069,442.237 833.5,444.5C 836.577,451.774 834.243,455.941 826.5,457C 821.833,457.667 817.167,457.667 812.5,457C 811.058,456.623 810.058,455.79 809.5,454.5C 806.136,442.785 806.969,431.451 812,420.5C 814.054,417.953 815.887,415.286 817.5,412.5C 821.422,410.085 824.922,407.085 828,403.5C 833.112,395.598 837.946,387.598 842.5,379.5C 843.584,380.665 844.417,381.998 845,383.5C 844.987,389.055 845.987,394.388 848,399.5C 856.791,406.8 865.958,413.466 875.5,419.5 Z"/></g>
<g><path style="opacity:1" fill="#070301" d="M 209.5,403.5 C 216.539,403.371 220.206,406.871 220.5,414C 220.402,420.708 217.235,425.208 211,427.5C 205.25,425.581 202.417,421.581 202.5,415.5C 203.31,410.537 205.644,406.537 209.5,403.5 Z"/></g>
<g><path style="opacity:1" fill="#040302" d="M 497.5,406.5 C 506.945,405.559 515.945,407.059 524.5,411C 529.593,416.216 529.759,421.716 525,427.5C 520.322,432.674 514.655,436.34 508,438.5C 507.333,442.167 507.333,445.833 508,449.5C 513.006,453.715 518.839,455.715 525.5,455.5C 528.592,455.493 531.592,454.993 534.5,454C 537.054,451.937 539.72,450.103 542.5,448.5C 544.739,448.574 545.739,449.741 545.5,452C 545.385,453.895 544.718,455.562 543.5,457C 540.952,459.442 537.952,461.108 534.5,462C 523.581,463.934 513.414,462.101 504,456.5C 493.328,462.764 482.161,463.93 470.5,460C 465.768,457.962 463.601,454.462 464,449.5C 464.893,448.919 465.893,448.585 467,448.5C 470.461,450.607 473.961,452.774 477.5,455C 485.696,455.829 493.196,453.996 500,449.5C 500.827,445.459 500.66,441.459 499.5,437.5C 490.646,434.424 484.98,428.424 482.5,419.5C 482.351,415.965 483.684,413.132 486.5,411C 490.157,409.178 493.824,407.678 497.5,406.5 Z"/></g>
<g><path style="opacity:1" fill="#8c512a" d="M 396.5,406.5 C 404.326,413.251 412.993,418.751 422.5,423C 423.313,429.587 421.813,435.754 418,441.5C 413.416,448.332 409.083,455.332 405,462.5C 403.667,463.833 402.333,465.167 401,466.5C 397.492,460.298 395.492,453.632 395,446.5C 394.503,433.132 395.003,419.798 396.5,406.5 Z"/></g>
<g><path style="opacity:1" fill="#060403" d="M 303.5,410.5 C 316.24,409.726 321.074,415.393 318,427.5C 314.723,433.109 309.89,434.942 303.5,433C 301.376,431.878 299.543,430.378 298,428.5C 297.333,424.5 297.333,420.5 298,416.5C 299.36,413.977 301.193,411.977 303.5,410.5 Z"/></g>
<g><path style="opacity:1" fill="#080402" d="M 364.5,411.5 C 375.792,410.96 380.626,416.293 379,427.5C 375.27,435.802 369.436,437.635 361.5,433C 358.637,428.219 357.804,423.052 359,417.5C 360.36,414.977 362.193,412.977 364.5,411.5 Z"/></g>
<g><path style="opacity:1" fill="#f6f6f4" d="M 305.5,412.5 C 311.488,412.664 312.821,415.164 309.5,420C 304.632,419.711 303.299,417.211 305.5,412.5 Z"/></g>
<g><path style="opacity:1" fill="#060605" d="M 703.5,412.5 C 711.982,412.765 715.149,417.099 713,425.5C 711.268,430.617 707.768,432.45 702.5,431C 697.044,424.552 697.378,418.386 703.5,412.5 Z"/></g>
<g><path style="opacity:1" fill="#070706" d="M 650.5,412.5 C 656.402,412.236 659.069,415.07 658.5,421C 658.746,426.37 656.412,429.87 651.5,431.5C 646.738,430.007 644.405,426.674 644.5,421.5C 644.298,416.873 646.298,413.873 650.5,412.5 Z"/></g>
<g><path style="opacity:1" fill="#f9f2e6" d="M 267.5,434.5 C 255.509,467.65 232.175,487.817 197.5,495C 147.508,502.247 109.008,484.747 82,442.5C 78.7595,435.871 76.9261,428.871 76.5,421.5C 83.0929,417.799 90.0929,414.966 97.5,413C 111.726,410.631 123.726,414.631 133.5,425C 136.298,426.734 139.298,427.901 142.5,428.5C 148.146,426.346 153.813,424.179 159.5,422C 174.776,419.321 188.776,422.321 201.5,431C 205.5,431.667 209.5,431.667 213.5,431C 232.21,421.525 250.21,422.692 267.5,434.5 Z"/></g>
<g><path style="opacity:1" fill="#f2f2f2" d="M 364.5,414.5 C 371.004,414.138 372.671,416.638 369.5,422C 363.98,422.37 362.313,419.87 364.5,414.5 Z"/></g>
<g><path style="opacity:1" fill="#f9f2e6" d="M 332.5,358.5 C 338.203,358.375 343.87,358.708 349.5,359.5C 351.953,363.084 353.286,367.084 353.5,371.5C 351.591,382.396 348.758,393.063 345,403.5C 342.895,415.6 344.895,426.933 351,437.5C 357.426,446.016 364.093,454.349 371,462.5C 372.136,464.743 372.97,467.076 373.5,469.5C 370.68,475.14 367.847,480.807 365,486.5C 357.888,493.794 349.722,495.294 340.5,491C 337.727,487.86 337.061,484.36 338.5,480.5C 347.938,478.578 352.105,472.911 351,463.5C 348.749,458.631 344.915,456.131 339.5,456C 335.167,455.333 330.833,455.333 326.5,456C 319.249,458.276 316.749,463.11 319,470.5C 320.972,474.972 324.138,478.305 328.5,480.5C 329.537,489.951 325.204,493.785 315.5,492C 309.34,491.171 304.84,488.004 302,482.5C 299.993,477.98 298.493,473.313 297.5,468.5C 300.642,463.564 303.809,458.564 307,453.5C 312.034,448.801 316.7,443.801 321,438.5C 328.301,428.93 331.801,418.097 331.5,406C 331.066,395.864 329.733,385.864 327.5,376C 327.469,369.64 329.136,363.806 332.5,358.5 Z"/></g>
<g><path style="opacity:1" fill="#070504" d="M 865.5,456.5 C 866.251,457.573 867.251,457.74 868.5,457C 874.677,453.319 878.677,447.986 880.5,441C 883.588,440.412 885.255,441.745 885.5,445C 883.159,454.842 877.159,461.342 867.5,464.5C 867.061,472.923 865.061,480.923 861.5,488.5C 847.853,502.686 833.853,503.019 819.5,489.5C 818.928,487.745 818.094,486.078 817,484.5C 815.787,478.174 814.62,471.841 813.5,465.5C 806.441,462.753 801.274,458.087 798,451.5C 796.175,446.014 798.008,443.514 803.5,444C 804.732,447.19 806.065,450.357 807.5,453.5C 807.957,454.298 808.624,454.631 809.5,454.5C 810.058,455.79 811.058,456.623 812.5,457C 817.167,457.667 821.833,457.667 826.5,457C 834.243,455.941 836.577,451.774 833.5,444.5C 827.069,442.237 821.569,438.57 817,433.5C 813.305,428.182 813.805,423.349 818.5,419C 828.535,413.937 838.868,413.27 849.5,417C 853.621,418.361 856.288,421.028 857.5,425C 854.929,433.246 849.762,439.413 842,443.5C 841.333,447.167 841.333,450.833 842,454.5C 849.546,458.698 857.379,459.364 865.5,456.5 Z"/></g>
<g><path style="opacity:1" fill="#d7d1c3" d="M 573.5,416.5 C 575.332,417.14 575.665,418.14 574.5,419.5C 573.614,418.675 573.281,417.675 573.5,416.5 Z"/></g>
<g><path style="opacity:1" fill="#e7a335" d="M 817.5,412.5 C 815.887,415.286 814.054,417.953 812,420.5C 806.969,431.451 806.136,442.785 809.5,454.5C 808.624,454.631 807.957,454.298 807.5,453.5C 806.065,450.357 804.732,447.19 803.5,444C 798.008,443.514 796.175,446.014 798,451.5C 801.274,458.087 806.441,462.753 813.5,465.5C 814.62,471.841 815.787,478.174 817,484.5C 818.094,486.078 818.928,487.745 819.5,489.5C 814.976,491.131 810.309,492.131 805.5,492.5C 802.777,482.957 796.444,478.79 786.5,480C 785.069,479.535 783.903,478.701 783,477.5C 781.892,473.914 781.392,470.247 781.5,466.5C 786.966,458.337 788.8,449.337 787,439.5C 786.673,435.371 785.84,431.371 784.5,427.5C 795.381,422.226 806.381,417.226 817.5,412.5 Z"/></g>
<g><path style="opacity:1" fill="#e7a135" d="M 875.5,419.5 C 880.361,421.621 885.361,423.455 890.5,425C 904.78,424.295 915.28,430.128 922,442.5C 925.03,453.157 921.197,458.824 910.5,459.5C 910.948,464.041 910.281,468.374 908.5,472.5C 903.326,474.965 897.992,477.132 892.5,479C 889.223,481.766 886.557,484.933 884.5,488.5C 877.29,491.316 869.957,491.816 862.5,490C 861.944,489.617 861.611,489.117 861.5,488.5C 865.061,480.923 867.061,472.923 867.5,464.5C 877.159,461.342 883.159,454.842 885.5,445C 885.255,441.745 883.588,440.412 880.5,441C 878.677,447.986 874.677,453.319 868.5,457C 867.251,457.74 866.251,457.573 865.5,456.5C 867.209,451.548 869.042,446.548 871,441.5C 871.447,433.814 872.947,426.48 875.5,419.5 Z"/></g>
<g><path style="opacity:1" fill="#050504" d="M 165.5,430.5 C 173.681,429.549 181.347,431.049 188.5,435C 193.404,442.815 192.07,449.481 184.5,455C 181.439,457.035 178.105,458.201 174.5,458.5C 173.974,461.808 175.307,463.974 178.5,465C 185.797,467.397 192.797,466.731 199.5,463C 202.409,460.604 204.409,457.604 205.5,454C 207.441,453.257 209.274,453.424 211,454.5C 211.18,463.27 207.013,469.103 198.5,472C 188.504,474.745 179.004,473.578 170,468.5C 158.84,473.186 148.34,472.019 138.5,465C 133.139,461.118 130.972,455.951 132,449.5C 133.396,447.473 135.062,447.14 137,448.5C 141.938,461.22 151.105,465.886 164.5,462.5C 165.647,460.235 165.814,457.902 165,455.5C 156.73,450.974 154.064,444.307 157,435.5C 159.682,433.415 162.516,431.748 165.5,430.5 Z"/></g>
<g><path style="opacity:1" fill="#dbd1ba" d="M 280.5,453.5 C 282.474,455.428 283.974,457.761 285,460.5C 288.589,470.942 292.756,481.109 297.5,491C 296.511,494.447 295.844,497.947 295.5,501.5C 288.895,501.702 282.895,503.702 277.5,507.5C 273.145,501.984 267.478,498.484 260.5,497C 255.831,491.998 252.164,486.331 249.5,480C 254.153,474.678 258.82,469.345 263.5,464C 270.874,462.993 276.541,459.493 280.5,453.5 Z"/></g>
<g><path style="opacity:1" fill="#eb7c7f" d="M 835.5,460.5 C 836.5,460.5 837.5,460.5 838.5,460.5C 837.998,465.759 837.998,470.926 838.5,476C 840.112,476.72 841.612,476.554 843,475.5C 844.406,471.969 845.24,468.302 845.5,464.5C 849.917,464.607 854.251,465.274 858.5,466.5C 860.916,481.244 854.75,489.577 840,491.5C 829.978,491.479 824.311,486.479 823,476.5C 822.501,472.514 822.334,468.514 822.5,464.5C 827.264,464.231 831.597,462.898 835.5,460.5 Z"/></g>
<g><path style="opacity:1" fill="#f7f7f7" d="M 674.5,467.5 C 679.28,475.635 685.28,482.968 692.5,489.5C 685.471,496.409 677.137,498.576 667.5,496C 664.827,494.999 662.493,493.499 660.5,491.5C 666.723,484.385 671.389,476.385 674.5,467.5 Z"/></g>
<g><path style="opacity:1" fill="#e6c891" d="M 563.5,454.5 C 565.172,464.365 568.005,474.031 572,483.5C 573.337,488.165 573.503,492.832 572.5,497.5C 561.07,503.922 554.403,513.589 552.5,526.5C 517.5,526.5 482.5,526.5 447.5,526.5C 448.628,513.42 443.461,503.753 432,497.5C 431.778,493.818 432.111,490.152 433,486.5C 437.23,476.707 440.896,466.707 444,456.5C 457.2,479.857 477.367,490.857 504.5,489.5C 517.716,489.623 530.383,487.123 542.5,482C 552.687,475.308 559.687,466.141 563.5,454.5 Z"/></g>
<g><path style="opacity:1" fill="#dbd1bb" d="M 432.5,419.5 C 433.621,421.954 434.454,424.621 435,427.5C 435.667,435.833 435.667,444.167 435,452.5C 432.47,462.757 429.136,472.757 425,482.5C 424.064,486.114 423.564,489.78 423.5,493.5C 413.59,492.361 404.257,494.028 395.5,498.5C 392.5,488.834 388.166,479.834 382.5,471.5C 384.843,468.793 387.177,466.126 389.5,463.5C 391.241,468.074 394.241,471.574 398.5,474C 403.505,474.917 407.672,473.417 411,469.5C 417.503,459.831 423.503,449.831 429,439.5C 430.824,432.909 431.99,426.243 432.5,419.5 Z"/></g>
<g><path style="opacity:1" fill="#d88a34" d="M 71.5,479.5 C 82.0219,478.642 92.0219,480.475 101.5,485C 113.308,493.758 117.142,505.258 113,519.5C 111.089,526.791 106.423,531.124 99,532.5C 99.0134,525.984 98.0134,519.651 96,513.5C 92.5082,510.41 90.3415,511.077 89.5,515.5C 95.833,533.334 89.833,539.834 71.5,535C 69.6217,533.457 68.1217,531.624 67,529.5C 65.8703,524.788 64.3703,520.288 62.5,516C 59.1432,514.859 57.1432,516.025 56.5,519.5C 57.087,524.763 58.7537,529.596 61.5,534C 46.8258,532.989 39.1591,524.989 38.5,510C 39.0691,500.433 43.4024,493.1 51.5,488C 57.7301,483.876 64.3967,481.043 71.5,479.5 Z"/></g>
<g><path style="opacity:1" fill="#d88b34" d="M 939.5,480.5 C 956.957,479.148 970.79,485.481 981,499.5C 985.832,512.335 983.332,523.501 973.5,533C 969.782,535.298 965.782,535.965 961.5,535C 965.125,529.335 966.625,523.168 966,516.5C 963.321,513.828 960.988,514.162 959,517.5C 957.394,536.221 948.227,541.221 931.5,532.5C 930.151,525.824 930.818,519.324 933.5,513C 931.734,509.437 929.401,508.937 926.5,511.5C 923.579,517.478 922.912,523.644 924.5,530C 913.274,528.599 907.274,522.099 906.5,510.5C 907.484,501.363 911.484,493.863 918.5,488C 925.302,484.569 932.302,482.069 939.5,480.5 Z"/></g>
<g><path style="opacity:1" fill="#dfd5be" d="M 576.5,471.5 C 576.735,470.903 577.235,470.57 578,470.5C 580.135,471.127 582.302,471.627 584.5,472C 590.009,479.084 597.342,482.417 606.5,482C 609.014,483.757 611.681,485.257 614.5,486.5C 612.484,490.531 610.484,494.531 608.5,498.5C 600.045,494.066 591.045,492.399 581.5,493.5C 581.854,485.588 580.187,478.255 576.5,471.5 Z"/></g>
<g><path style="opacity:1" fill="#5b493e" d="M 781.5,466.5 C 781.392,470.247 781.892,473.914 783,477.5C 783.903,478.701 785.069,479.535 786.5,480C 796.444,478.79 802.777,482.957 805.5,492.5C 805.176,497.47 803.843,502.137 801.5,506.5C 793.333,498.108 783.333,494.442 771.5,495.5C 770.966,487.574 772.133,479.907 775,472.5C 776.451,469.697 778.618,467.697 781.5,466.5 Z"/></g>
<g><path style="opacity:1" fill="#db8e35" d="M 220.5,510.5 C 218.269,507.164 216.603,503.497 215.5,499.5C 223.471,494.177 231.471,488.844 239.5,483.5C 242.61,487.541 245.61,491.707 248.5,496C 236.728,496.384 227.394,501.218 220.5,510.5 Z"/></g>
<g><path style="opacity:1" fill="#ded5c0" d="M 762.5,481.5 C 762.631,486.584 762.631,491.918 762.5,497.5C 759.5,498.167 756.5,498.833 753.5,499.5C 753.32,494.127 751.654,489.294 748.5,485C 753.538,484.766 758.205,483.599 762.5,481.5 Z"/></g>
<g><path style="opacity:1" fill="#f9f2e6" d="M 376.5,480.5 C 377.496,480.414 378.329,480.748 379,481.5C 383.376,488.622 385.709,496.289 386,504.5C 379.815,510.536 376.648,517.87 376.5,526.5C 357.833,526.5 339.167,526.5 320.5,526.5C 320.677,514.501 315.177,506.501 304,502.5C 303.558,500.316 304.058,498.316 305.5,496.5C 309.274,498.771 312.607,501.604 315.5,505C 328.65,513.269 341.983,513.602 355.5,506C 360.199,500.91 365.366,496.41 371,492.5C 373.119,488.598 374.952,484.598 376.5,480.5 Z"/></g>
<g><path style="opacity:1" fill="#fbfbfa" d="M 657.5,525.5 C 652.36,526.488 647.026,526.821 641.5,526.5C 640.759,522.828 639.593,519.161 638,515.5C 634.84,512.499 632.674,512.999 631.5,517C 632.198,520.262 633.198,523.428 634.5,526.5C 630.893,527.489 627.226,527.823 623.5,527.5C 623.014,519.375 620.347,512.042 615.5,505.5C 616.707,501.713 618.207,498.046 620,494.5C 622.1,497.467 624.934,499.3 628.5,500C 637.417,501.479 645.917,500.313 654,496.5C 663.625,504.426 674.458,506.592 686.5,503C 691.214,500.949 695.381,498.115 699,494.5C 709.941,501.007 721.441,502.174 733.5,498C 736.762,495.408 739.262,492.241 741,488.5C 743.947,493.066 745.78,498.066 746.5,503.5C 744.968,507.568 743.135,511.568 741,515.5C 740.064,519.114 739.564,522.78 739.5,526.5C 735.774,526.823 732.107,526.489 728.5,525.5C 729.366,523.568 730.033,521.568 730.5,519.5C 729.339,515.278 727.172,514.612 724,517.5C 722.698,520.375 721.865,523.375 721.5,526.5C 716.125,526.828 710.792,526.495 705.5,525.5C 707.713,520.906 710.047,516.406 712.5,512C 710.049,507.523 707.215,507.356 704,511.5C 701.628,516.412 699.128,521.245 696.5,526C 686.483,526.832 676.483,526.666 666.5,525.5C 663.373,520.08 660.373,514.58 657.5,509C 654.143,507.859 652.143,509.025 651.5,512.5C 653.252,517 655.252,521.334 657.5,525.5 Z"/></g>
<g><path style="opacity:1" fill="#f9f2e6" d="M 861.5,488.5 C 861.611,489.117 861.944,489.617 862.5,490C 869.957,491.816 877.29,491.316 884.5,488.5C 886.535,494.934 888.535,501.267 890.5,507.5C 890.784,510.777 890.451,513.943 889.5,517C 882.773,519.197 876.439,522.197 870.5,526C 849.503,526.5 828.503,526.667 807.5,526.5C 807.829,520.463 807.496,514.463 806.5,508.5C 805.167,507.167 803.833,507.167 802.5,508.5C 801.702,508.043 801.369,507.376 801.5,506.5C 803.843,502.137 805.176,497.47 805.5,492.5C 810.309,492.131 814.976,491.131 819.5,489.5C 833.853,503.019 847.853,502.686 861.5,488.5 Z"/></g>
<g><path style="opacity:1" fill="#d88933" d="M 134.5,498.5 C 133.433,504.364 131.767,510.031 129.5,515.5C 127.53,514.838 125.53,514.172 123.5,513.5C 123.175,502.519 119.508,492.853 112.5,484.5C 112.833,484.167 113.167,483.833 113.5,483.5C 116.837,486.171 120.504,488.337 124.5,490C 127.438,493.449 130.771,496.282 134.5,498.5 Z"/></g>
<g><path style="opacity:1" fill="#efece7" d="M 331.5,495.5 C 336.658,497.906 341.991,500.073 347.5,502C 338.501,505.593 329.835,504.926 321.5,500C 325.229,499.156 328.563,497.656 331.5,495.5 Z"/></g>
<g><path style="opacity:1" fill="#f9f2e6" d="M 134.5,498.5 C 148.316,502.83 162.483,505.164 177,505.5C 190.068,504.943 202.902,502.943 215.5,499.5C 216.603,503.497 218.269,507.164 220.5,510.5C 218.251,515.586 217.251,520.919 217.5,526.5C 195.497,526.667 173.497,526.5 151.5,526C 144.54,521.686 137.207,518.186 129.5,515.5C 131.767,510.031 133.433,504.364 134.5,498.5 Z"/></g>
<g><path style="opacity:1" fill="#e7ca94" d="M 407.5,501.5 C 418.543,499.963 428.043,502.963 436,510.5C 439.378,517.097 440.378,524.097 439,531.5C 438.167,532.333 437.333,533.167 436.5,534C 433.518,534.498 430.518,534.665 427.5,534.5C 428.509,529.204 428.676,523.871 428,518.5C 425.667,515.833 423.333,515.833 421,518.5C 420.754,523.372 420.254,528.205 419.5,533C 419.095,533.945 418.428,534.612 417.5,535C 414.167,535.667 410.833,535.667 407.5,535C 406.299,534.097 405.465,532.931 405,531.5C 404.524,526.783 404.524,522.117 405,517.5C 403.274,516.424 401.441,516.257 399.5,517C 397.171,522.317 396.838,527.817 398.5,533.5C 383.86,533.739 380.36,527.406 388,514.5C 393.183,508.005 399.683,503.672 407.5,501.5 Z"/></g>
<g><path style="opacity:1" fill="#e4c892" d="M 582.5,501.5 C 604.191,499.366 614.691,509.033 614,530.5C 613.5,532.333 612.333,533.5 610.5,534C 607.854,534.497 605.187,534.664 602.5,534.5C 602.666,529.821 602.499,525.155 602,520.5C 600.267,518.398 598.267,518.065 596,519.5C 599.43,532.724 594.597,538.224 581.5,536C 579.906,530.327 579.073,524.494 579,518.5C 577,515.833 575,515.833 573,518.5C 572.219,523.554 572.386,528.554 573.5,533.5C 569.472,534.959 565.639,534.626 562,532.5C 559.93,527.376 560.264,522.376 563,517.5C 567.919,510.066 574.419,504.732 582.5,501.5 Z"/></g>
<g><path style="opacity:1" fill="#faf9f9" d="M 766.5,503.5 C 775.303,502.554 783.636,504.054 791.5,508C 798.174,513.687 800.674,520.854 799,529.5C 795.979,533.753 791.813,535.419 786.5,534.5C 786.32,530.785 786.654,527.118 787.5,523.5C 786.7,518.118 784.2,516.784 780,519.5C 782.222,531.606 777.389,536.773 765.5,535C 765,534.5 764.5,534 764,533.5C 763.228,529.11 763.394,524.777 764.5,520.5C 761.439,515.207 758.606,515.541 756,521.5C 755.503,525.524 755.669,529.524 756.5,533.5C 753.315,533.98 750.481,533.314 748,531.5C 745.442,516.26 751.609,506.926 766.5,503.5 Z"/></g>
<g><path style="opacity:1" fill="#f9f3ea" d="M 241.5,504.5 C 250.961,503.483 259.961,504.983 268.5,509C 274.167,514.319 276.001,520.819 274,528.5C 272.215,532.801 269.048,534.801 264.5,534.5C 264.666,530.154 264.499,525.821 264,521.5C 262.741,517.777 260.408,516.777 257,518.5C 256.978,523.818 257.145,529.151 257.5,534.5C 253.774,534.823 250.107,534.489 246.5,533.5C 245.26,528.583 244.426,523.583 244,518.5C 240.841,515.659 238.508,516.326 237,520.5C 236.924,524.819 237.091,529.152 237.5,533.5C 226.789,533.943 222.955,528.943 226,518.5C 228.844,511.151 234.011,506.484 241.5,504.5 Z"/></g>
<g><path style="opacity:1" fill="#dc8f37" d="M 296.5,525.5 C 294.052,526.473 291.385,526.806 288.5,526.5C 288.833,522.167 286.833,520.167 282.5,520.5C 282.739,518.533 282.406,516.699 281.5,515C 291.465,507.378 300.965,507.878 310,516.5C 311.759,519.608 312.592,522.941 312.5,526.5C 309.833,526.5 307.167,526.5 304.5,526.5C 304.664,523.813 304.497,521.146 304,518.5C 301.88,515.92 299.713,515.92 297.5,518.5C 296.626,520.747 296.292,523.08 296.5,525.5 Z"/></g>
<g><path style="opacity:1" fill="#fefefd" d="M 120.5,521.5 C 131.533,524.349 141.866,528.849 151.5,535C 174.833,535.333 198.167,535.667 221.5,536C 227.193,541.429 233.859,542.929 241.5,540.5C 247.676,544.002 254.01,544.335 260.5,541.5C 267.6,543.459 273.6,541.625 278.5,536C 312.5,535.333 346.5,535.333 380.5,536C 382.305,538.403 384.638,540.07 387.5,541C 392.222,541.777 396.889,541.61 401.5,540.5C 408.721,544.461 415.887,544.461 423,540.5C 429.516,543.196 436.016,543.029 442.5,540C 443.687,538.981 444.687,537.814 445.5,536.5C 481.829,535.333 518.162,535.167 554.5,536C 556.577,538.738 559.243,540.738 562.5,542C 570.592,542.171 578.592,543.005 586.5,544.5C 590.706,544.32 594.706,543.32 598.5,541.5C 607.056,544.144 614.389,542.311 620.5,536C 660.833,535.333 701.167,535.333 741.5,536C 746.496,541.338 752.496,542.838 759.5,540.5C 766.97,544.395 774.47,544.395 782,540.5C 790.483,543.837 797.983,542.337 804.5,536C 827.167,535.667 849.833,535.333 872.5,535C 880.8,528.767 889.967,524.267 900,521.5C 905.679,532.759 914.845,538.592 927.5,539C 936.403,546.154 946.07,547.321 956.5,542.5C 965.393,544.878 973.393,543.212 980.5,537.5C 995.94,552.33 1001.44,570.33 997,591.5C 992.821,611.541 981.654,626.208 963.5,635.5C 975.83,642.997 985.663,652.997 993,665.5C 1004.04,692.325 998.535,715.159 976.5,734C 954.402,747.907 931.068,750.24 906.5,741C 893.027,734.196 882.027,724.529 873.5,712C 632.167,711.333 390.833,711.333 149.5,712C 126.78,743.906 96.7797,753.573 59.5,741C 29.7486,725.652 19.5819,701.819 29,669.5C 35.5552,654.447 46.0552,643.114 60.5,635.5C 41.2804,626.094 29.7804,610.761 26,589.5C 23.0867,569.575 28.5867,552.408 42.5,538C 46.5995,538.7 50.5995,540.033 54.5,542C 58.3773,542.729 62.2106,542.562 66,541.5C 75.9065,547.247 85.4065,546.747 94.5,540C 108.016,540.426 116.683,534.259 120.5,521.5 Z"/></g>
<g><path style="opacity:1" fill="#633e1a" d="M 296.5,525.5 C 297.043,525.56 297.376,525.893 297.5,526.5C 294.355,527.803 291.355,527.803 288.5,526.5C 291.385,526.806 294.052,526.473 296.5,525.5 Z"/></g>
<g><path style="opacity:1" fill="#727171" d="M 657.5,525.5 C 658.043,525.56 658.376,525.893 658.5,526.5C 652.68,527.816 647.013,527.816 641.5,526.5C 647.026,526.821 652.36,526.488 657.5,525.5 Z"/></g>
<g><path style="opacity:1" fill="#020201" d="M 169.5,564.5 C 178.559,564.154 187.559,564.654 196.5,566C 203.779,567.961 209.279,572.128 213,578.5C 214.5,590.333 209.333,595.5 197.5,594C 191.393,587.853 184.06,585.52 175.5,587C 171.607,590.588 171.607,594.254 175.5,598C 185.588,602.808 195.588,607.808 205.5,613C 216.631,623.693 218.464,635.859 211,649.5C 202.318,658.902 191.485,663.569 178.5,663.5C 166.63,663.489 156.13,659.822 147,652.5C 143.646,647.334 142.646,641.668 144,635.5C 146.741,630.581 150.908,628.748 156.5,630C 161.25,634.041 166.583,637.041 172.5,639C 178.076,640.472 182.909,639.305 187,635.5C 188.176,631.74 187.01,628.907 183.5,627C 173.68,622.59 164.014,617.923 154.5,613C 143.09,602.068 141.59,589.902 150,576.5C 155.253,570.298 161.753,566.298 169.5,564.5 Z"/></g>
<g><path style="opacity:1" fill="#020202" d="M 571.5,564.5 C 583.819,563.612 595.819,565.112 607.5,569C 621.247,577.335 626.747,589.501 624,605.5C 621.243,618.589 613.41,626.756 600.5,630C 593.253,631.631 585.92,632.464 578.5,632.5C 578.666,639.841 578.5,647.174 578,654.5C 577.537,658.963 575.037,661.463 570.5,662C 564.747,662.851 559.08,662.517 553.5,661C 551.951,659.786 550.785,658.286 550,656.5C 549.928,629.168 550.261,601.834 551,574.5C 552.14,570.693 554.64,568.193 558.5,567C 562.965,566.126 567.298,565.293 571.5,564.5 Z"/></g>
<g><path style="opacity:1" fill="#010101" d="M 238.5,570.5 C 242.514,570.334 246.514,570.501 250.5,571C 252.286,571.785 253.786,572.951 255,574.5C 256.41,580.379 256.91,586.379 256.5,592.5C 262.176,592.334 267.843,592.501 273.5,593C 277.386,594.937 279.053,598.103 278.5,602.5C 278.888,605.861 277.888,608.694 275.5,611C 269.175,611.5 262.842,611.666 256.5,611.5C 256.059,620.276 256.559,628.942 258,637.5C 259.214,639.049 260.714,640.215 262.5,641C 266.833,641.333 271.167,641.667 275.5,642C 279.644,648.963 278.31,654.963 271.5,660C 262.167,663.333 252.833,663.333 243.5,660C 236.789,656.082 232.955,650.249 232,642.5C 231.5,632.172 231.334,621.839 231.5,611.5C 222.814,613.956 218.148,610.789 217.5,602C 218.176,593.175 222.843,590.009 231.5,592.5C 231.334,587.489 231.501,582.489 232,577.5C 233.018,573.985 235.185,571.652 238.5,570.5 Z"/></g>
<g><path style="opacity:1" fill="#fafaf9" d="M 576.5,583.5 C 592.72,581.552 599.553,588.552 597,604.5C 596.117,607.102 594.617,609.269 592.5,611C 587.264,612.339 581.93,612.839 576.5,612.5C 576.5,602.833 576.5,593.167 576.5,583.5 Z"/></g>
<g><path style="opacity:1" fill="#030303" d="M 293.5,590.5 C 297.967,590.133 302.3,590.633 306.5,592C 307,592.5 307.5,593 308,593.5C 308.333,596.5 308.667,599.5 309,602.5C 314.012,592.19 322.179,588.356 333.5,591C 346.677,596.548 349.844,605.714 343,618.5C 337.69,622.716 331.857,623.549 325.5,621C 324.299,620.097 323.465,618.931 323,617.5C 322.587,614.768 321.92,612.101 321,609.5C 319.062,608.14 317.396,608.473 316,610.5C 314.438,612.957 313.438,615.624 313,618.5C 312.642,631.178 312.642,643.844 313,656.5C 311.74,659.428 309.573,661.261 306.5,662C 300.903,663.091 295.57,662.424 290.5,660C 288.513,658.681 287.346,656.848 287,654.5C 286.333,636.5 286.333,618.5 287,600.5C 287.435,595.945 289.602,592.611 293.5,590.5 Z"/></g>
<g><path style="opacity:1" fill="#020202" d="M 376.5,589.5 C 387.663,588.827 397.996,591.327 407.5,597C 411.993,600.834 414.826,605.667 416,611.5C 416.018,625.77 417.185,639.937 419.5,654C 419.668,658.833 417.335,661.5 412.5,662C 406.948,663.196 401.781,662.363 397,659.5C 395.956,657.285 395.29,654.952 395,652.5C 392.778,656.388 389.612,659.221 385.5,661C 376.257,663.411 367.257,662.745 358.5,659C 348.086,651.07 345.919,641.237 352,629.5C 360.615,619.407 371.448,615.907 384.5,619C 387.624,619.479 390.457,620.646 393,622.5C 392.913,610.747 387.08,605.914 375.5,608C 372.228,609.608 369.228,611.608 366.5,614C 357.339,616.162 353.173,612.662 354,603.5C 356.167,598.667 359.667,595.167 364.5,593C 368.623,591.808 372.623,590.641 376.5,589.5 Z"/></g>
<g><path style="opacity:1" fill="#020202" d="M 435.5,590.5 C 439.846,590.334 444.179,590.501 448.5,591C 449.931,591.465 451.097,592.299 452,593.5C 453.295,606.072 453.962,618.738 454,631.5C 455.397,639.615 459.897,642.115 467.5,639C 469.487,637.681 470.654,635.848 471,633.5C 471.821,620.454 472.821,607.454 474,594.5C 478.861,590.716 484.361,589.549 490.5,591C 493.728,592.563 495.895,595.063 497,598.5C 498.11,619.904 497.443,641.238 495,662.5C 492.103,678.73 482.603,688.23 466.5,691C 455.232,692.851 444.565,691.184 434.5,686C 428.39,680.256 428.056,674.256 433.5,668C 435.034,667.077 436.701,666.577 438.5,666.5C 442.589,667.709 446.589,669.209 450.5,671C 466.131,673.702 472.964,667.202 471,651.5C 465.47,659.236 457.97,662.07 448.5,660C 435.771,657.409 428.938,649.576 428,636.5C 427.333,625.833 427.333,615.167 428,604.5C 427.167,597.821 429.667,593.154 435.5,590.5 Z"/></g>
<g><path style="opacity:1" fill="#020302" d="M 653.5,589.5 C 664.962,588.906 675.628,591.406 685.5,597C 689.778,601.391 692.611,606.557 694,612.5C 694.639,627.524 695.305,642.524 696,657.5C 691.117,662.204 685.283,663.704 678.5,662C 674.408,660.667 672.075,657.833 671.5,653.5C 669.255,656.912 666.255,659.412 662.5,661C 652.178,663.957 642.512,662.624 633.5,657C 623.865,645.685 624.199,634.685 634.5,624C 640.081,619.64 646.415,617.807 653.5,618.5C 659.994,617.555 665.66,619.222 670.5,623.5C 670.641,611.485 664.641,606.318 652.5,608C 649.228,609.608 646.228,611.608 643.5,614C 634.333,615.5 630.5,611.667 632,602.5C 632.792,600.413 633.959,598.579 635.5,597C 641.149,593.402 647.149,590.902 653.5,589.5 Z"/></g>
<g><path style="opacity:1" fill="#020202" d="M 709.5,590.5 C 713.514,590.334 717.514,590.501 721.5,591C 723.848,591.346 725.681,592.513 727,594.5C 729.844,608.883 733.01,623.216 736.5,637.5C 739.097,624.677 742.264,612.011 746,599.5C 752.019,594.241 758.852,593.075 766.5,596C 768.81,597.637 770.31,599.804 771,602.5C 773.412,614.562 776.079,626.562 779,638.5C 781.874,623.794 784.874,609.128 788,594.5C 789.579,592.959 791.413,591.792 793.5,591C 808.814,587.647 814.648,593.481 811,608.5C 806.962,625.287 800.962,641.287 793,656.5C 786.286,662.838 778.786,664.005 770.5,660C 767.469,657.441 765.302,654.274 764,650.5C 761.587,643.93 759.587,637.263 758,630.5C 756.188,639.268 753.188,647.602 749,655.5C 739.635,664.772 730.302,664.772 721,655.5C 710.436,637.477 704.103,618.144 702,597.5C 703.767,594.228 706.267,591.895 709.5,590.5 Z"/></g>
<g><path style="opacity:1" fill="#030303" d="M 845.5,589.5 C 852.639,589.178 859.639,590.012 866.5,592C 878.496,596.437 880.496,603.437 872.5,613C 870.5,613.667 868.5,613.667 866.5,613C 862.349,609.342 857.515,607.175 852,606.5C 846.368,606.458 844.034,609.124 845,614.5C 846.255,615.211 847.421,616.044 848.5,617C 857.254,619.361 865.588,622.694 873.5,627C 883.282,637.644 882.615,647.644 871.5,657C 853.827,666.477 836.994,665.311 821,653.5C 816.076,644.894 818.243,639.228 827.5,636.5C 833.116,638.971 838.782,641.471 844.5,644C 848.572,644.956 852.405,644.456 856,642.5C 856.72,640.888 856.554,639.388 855.5,638C 848.32,634.94 840.986,632.273 833.5,630C 816.865,620.927 815.199,609.594 828.5,596C 833.888,592.752 839.554,590.585 845.5,589.5 Z"/></g>
<g><path style="opacity:1" fill="#fbfbfa" d="M 378.5,631.5 C 383.537,631.413 388.537,631.746 393.5,632.5C 392.846,643.308 387.18,647.474 376.5,645C 372.088,639.714 372.755,635.214 378.5,631.5 Z"/></g>
<g><path style="opacity:1" fill="#fafaf9" d="M 656.5,631.5 C 661.527,631.503 666.527,631.836 671.5,632.5C 670.179,644.347 663.846,648.181 652.5,644C 650.012,641.373 649.845,638.54 652,635.5C 653.397,633.93 654.897,632.596 656.5,631.5 Z"/></g>
<g><path style="opacity:1" fill="#dcd4bf" d="M 994.5,617.5 C 993.837,626.854 991.837,636.188 988.5,645.5C 984.981,642.146 981.314,638.98 977.5,636C 985.124,631.546 990.791,625.379 994.5,617.5 Z"/></g>
<g><path style="opacity:1" fill="#dfd7c2" d="M 27.5,617.5 C 32.2181,625.057 38.2181,631.557 45.5,637C 41.5422,639.234 38.0422,642.067 35,645.5C 31.6774,636.387 29.1774,627.054 27.5,617.5 Z"/></g>
<g><path style="opacity:1" fill="#d9cfb8" d="M 151.5,720.5 C 391.167,720.333 630.834,720.5 870.5,721C 887.213,743.857 909.879,755.357 938.5,755.5C 878.945,857.215 794.278,929.715 684.5,973C 522.952,1029.39 371.285,1010.05 229.5,915C 169.593,871.767 120.927,818.434 83.5,755C 109.988,755.337 131.821,745.503 149,725.5C 150.094,723.922 150.928,722.255 151.5,720.5 Z"/></g>
</svg>
